inDegrees=no
num_controls=7
num_derivatives=13
num_iterations=40
num_multipliers=7
num_parameters=0
num_slacks=7
num_states=26
objective=0.431935
objective_accelerations=0.054232
objective_balance=0.007114
objective_effort=0.033351
objective_height=0.336119
objective_ligament=0.001119
solver_duration=523.770911
status=Solve_Succeeded
success=true
DataType=double
version=3
OpenSimVersion=4.5
endheader
time	/jointset/ground_pelvis/pelvis_tilt/value	/jointset/ground_pelvis/pelvis_tx/value	/jointset/ground_pelvis/pelvis_ty/value	/jointset/hip_l/hip_flexion_l/value	/jointset/hip_l/hip_adduction_l/value	/jointset/hip_l/hip_rotation_l/value	/jointset/back/lumbar_extension/value	/jointset/patellofemoral_l/patellar_flexion_l/value	/jointset/knee_l/knee_flexion_l/value	/jointset/knee_l/knee_adduction_l/value	/jointset/knee_l/knee_rotation_l/value	/jointset/ankle_l/ankle_angle_l/value	/jointset/subtalar_l/subtalar_angle_l/value	/jointset/ground_pelvis/pelvis_tilt/speed	/jointset/ground_pelvis/pelvis_tx/speed	/jointset/ground_pelvis/pelvis_ty/speed	/jointset/hip_l/hip_flexion_l/speed	/jointset/hip_l/hip_adduction_l/speed	/jointset/hip_l/hip_rotation_l/speed	/jointset/back/lumbar_extension/speed	/jointset/patellofemoral_l/patellar_flexion_l/speed	/jointset/knee_l/knee_flexion_l/speed	/jointset/knee_l/knee_adduction_l/speed	/jointset/knee_l/knee_rotation_l/speed	/jointset/ankle_l/ankle_angle_l/speed	/jointset/subtalar_l/subtalar_angle_l/speed	/forceset/tau_hip_flexion_l	/forceset/tau_hip_adduction_l	/forceset/tau_hip_rotation_l	/forceset/tau_knee_flexion_l	/forceset/tau_ankle_angle_l	/forceset/tau_subtalar_angle_l	/forceset/tau_lumbar_extension	lambda_cid13_p0	lambda_cid13_p1	lambda_cid13_p2	lambda_cid13_p3	lambda_cid13_p4	lambda_cid13_p5	lambda_cid14_p0	/jointset/ground_pelvis/pelvis_tilt/accel	/jointset/ground_pelvis/pelvis_tx/accel	/jointset/ground_pelvis/pelvis_ty/accel	/jointset/hip_l/hip_flexion_l/accel	/jointset/hip_l/hip_adduction_l/accel	/jointset/hip_l/hip_rotation_l/accel	/jointset/back/lumbar_extension/accel	/jointset/patellofemoral_l/patellar_flexion_l/accel	/jointset/knee_l/knee_flexion_l/accel	/jointset/knee_l/knee_adduction_l/accel	/jointset/knee_l/knee_rotation_l/accel	/jointset/ankle_l/ankle_angle_l/accel	/jointset/subtalar_l/subtalar_angle_l/accel	gamma_cid13_p0	gamma_cid13_p1	gamma_cid13_p2	gamma_cid13_p3	gamma_cid13_p4	gamma_cid13_p5	gamma_cid14_p0
0.5	-0.342784965715976	-0.03545469878366609	0.7583863057624133	1.202077450043758	-0.304549340854723	0.01904332778692441	-0.3266575425798022	0.8419143727332734	0.8419143727333495	-0.1728858943197185	0.1670956094410632	0.1655439305002079	-0.0188814112718798	-0.4535166288489565	-0.1734319647899847	-0.5416978552180416	2.221723388270876	0.02060593842959297	0.7268764607000722	-0.6363053875575461	2.179902397005502	2.179902397005451	-0.007361502807123837	0.0428659856660376	0.5386752907368669	0.110748206250892	-0.1977464497268914	0.06862249623688396	-0.02593320188879026	-0.2578653882403869	0.1088309736698834	-0.004310240521367919	0.1942974232061419	-4.401714976998223	2.137705435937322	-0.16646433490228	-1.555900573966044	-606.5440527985664	-16.38442988575333	-18.94513908672814	0.5930501287694174	0.6224459249282406	-0.4161553395973501	-1.544931200227595	0.735852629982517	-0.4135936030612641	1.889364005241045	-1.559268816903646	-1.559268816903659	0.07614544745814696	-0.1042763618280705	-0.641501675377011	0.7613793802192755	-4.408993489625716e-07	-4.793680913438272e-07	2.803339533547023e-06	3.064767280193163e-07	-5.351599901408344e-07	-1.762429326285939e-07	-4.428773954386905e-07
0.51	-0.347289486956807	-0.03715776017213009	0.7529496952745846	1.224213822870091	-0.3043081183541297	0.02629298397990305	-0.3329259008535266	0.8636319128719957	0.8636319128720257	-0.1729597171842101	0.1675185585365973	0.1708971834858262	-0.01773776700351917	-0.4473311416528755	-0.1671729571810635	-0.5455065429489775	2.205266196266958	0.02760367879601019	0.7229946769798745	-0.6173002275757353	2.163311867403594	2.163311867403555	-0.007422363899341355	0.04170589611469182	0.5318805835892891	0.1179459863678674	-0.2043517944863099	0.06861202165077308	-0.02594355095180148	-0.2607917324809481	0.1071108167254246	-0.003817955409180914	0.199789171372367	-5.203509099655351	2.244216710616407	-0.3889607605749824	-1.169871488840057	-611.3056837215391	-16.31634216243969	-17.59982206896591	0.6397345879859889	0.6287919536107822	-0.3456729050264623	-1.738908354210486	0.6761375471039447	-0.3848643447125664	1.915997936086631	-1.752923983182143	-1.752923983180223	-0.05007780364997942	-0.1251103694546573	-0.7126431603413954	0.6935240969678319	-4.059753009329336e-07	-3.565406801931762e-07	2.67780592869678e-06	3.0208378339819e-07	-4.946129926551029e-07	-7.29872174981358e-08	-4.144976967689629e-07
0.52	-0.3517304660110875	-0.03879799872955742	0.7474785084264098	1.246177064745634	-0.3039980378884458	0.03350194361803211	-0.3390022263391467	0.8851747519244338	0.8851747519244108	-0.1730347238428388	0.1679292597130876	0.1761796518147901	-0.01652323558008254	-0.4408081915384556	-0.1608673985826528	-0.5486131272872837	2.187097198113592	0.03437753144774007	0.7187371497311306	-0.5978988299365112	2.144962179747778	2.144962179747752	-0.007598261635091381	0.0404164018566731	0.5245183594059837	0.124925637266092	-0.2109571392457493	0.06860154706464328	-0.0259539000147164	-0.2637180767215273	0.1053906597809589	-0.003325670297016873	0.2052809195385749	-6.01236590836842	2.348068856810044	-0.6065813438550554	-0.7933030132153372	-616.1760925408266	-16.33953637911709	-16.25777968704772	0.6605427124369513	0.6317561228263286	-0.2757346610713727	-1.887292430116842	0.6910750870450522	-0.4887423087705236	1.968611536723556	-1.911100427685124	-1.911100427685177	0.05313811875162592	-0.1301573031626202	-0.7550050825222475	0.7177535364691469	-3.736527929339053e-07	-2.296722426416598e-07	2.570576825443763e-06	3.020924909989128e-07	-4.60240849898597e-07	2.877719677302706e-08	-3.877321048004537e-07
0.53	-0.356104690740952	-0.04037502445873777	0.7419797758144711	1.267950429623505	-0.3036211830348128	0.04066636859653265	-0.3448827079187172	0.9065256063149683	0.9065256063149248	-0.1731116499356773	0.1683264648380943	0.1813858347444799	-0.0152398223636424	-0.4339891088342135	-0.1545366647671515	-0.5510141589819842	2.167310517782142	0.0409538226210075	0.7140719036188687	-0.5781528346189528	2.124935724813274	2.124935724813263	-0.007793195830145176	0.03902445665789578	0.5166333271532729	0.1317162710827622	-0.2172429039451426	0.0683470982538248	-0.02591190741954425	-0.2668367414843894	0.1039615669040221	-0.002991453349139757	0.2104811847738712	-6.726922041757888	2.508392523893792	-0.8381573523408145	-0.4348506340867801	-620.9173325926055	-16.31383209974009	-14.92448093709863	0.6997109263824474	0.633954803829754	-0.2044904431541571	-2.064183332050373	0.6346083147991487	-0.4671288859256258	1.984291232755761	-2.089289323593424	-2.089289323591125	-0.05670807162106928	-0.1442415718731749	-0.8179588971971864	0.6533382611692858	-3.389319567267779e-07	-1.241953901946953e-07	2.44190680989629e-06	2.959874460201361e-07	-4.237446199514772e-07	1.180590425980714e-07	-3.597448570182586e-07
0.54	-0.3604093006683806	-0.04188869829117951	0.7364605922816886	1.289517962198582	-0.3031798248329788	0.04778179848920429	-0.3505643900044159	0.9276680218967085	0.9276680218966369	-0.1731907051470766	0.1687096448223899	0.1865106260315326	-0.01388977881765486	-0.4268852310513903	-0.148197019234933	-0.5527033114560534	2.145930737555053	0.04727820108754741	0.7089381325677354	-0.5581389311620499	2.103274417988358	2.103274417988362	-0.008024085344690146	0.0376113737136019	0.508240030878496	0.1382517031755677	-0.2235286686445591	0.06809264944297229	-0.02586991482411937	-0.2699554062472858	0.1025324740270737	-0.002657236401304986	0.2156814500091516	-7.4481197633676	2.666605013685566	-1.065655052491912	-0.08781168510127307	-625.7601072263514	-16.36968268649461	-13.60355813297794	0.717501728152932	0.6335384661699451	-0.1333588169450624	-2.205912409244571	0.6406925456995661	-0.5824472965448126	2.022193164592327	-2.238070805767403	-2.23807080576735	0.04594705485337348	-0.1343848522658916	-0.8566578869351974	0.666713191696263	-3.015576510128173e-07	-4.238582339532027e-08	2.289514933937929e-06	2.831182492512749e-07	-3.848983360913377e-07	1.935303871635801e-07	-3.304059900379432e-07
0.55	-0.364641585777176	-0.04333901696805824	0.7309280720937242	1.310864085898152	-0.3026763060259363	0.05484307082764136	-0.3560447556453344	0.9485859766607962	0.9485859766607477	-0.1732715077427529	0.1690788395320566	0.1915490974876081	-0.01247546205669828	-0.419530933646372	-0.1418730533833864	-0.5536812255920379	2.123047591280174	0.05338270746539382	0.7032008360727582	-0.5379121046326263	2.080064215345557	2.080064215345558	-0.008107270777463486	0.03625498923145539	0.4993767522787823	0.1445654645605819	-0.2295225954577566	0.067664188031479	-0.02576547680416283	-0.2731215194917682	0.1011778942234642	-0.002444423611143497	0.2205935204506214	-8.140688067583365	2.876741201832924	-1.306242305469081	0.305481106558824	-630.4126988345957	-16.3767577263913	-12.29793116210343	0.750503454966391	0.6309302785438888	-0.06215537199902882	-2.366506016468373	0.5885789777037727	-0.5869605069431111	2.02624125515765	-2.400280035605811	-2.40028003560622	-0.03103545759561493	-0.1325973613315737	-0.9127562262736377	0.6065195310510579	-2.65336028315628e-07	3.922721381979777e-08	2.128946484608779e-06	2.689013202237748e-07	-3.460499659251924e-07	2.570372407090757e-07	-3.001507990291697e-07
0.5600000000000001	-0.3687991059702621	-0.04472627505964214	0.7253893432323856	1.331973980079001	-0.3021130922963361	0.06184345226492013	-0.3613221902493507	0.9692642723900489	0.9692642723900101	-0.1733522590158209	0.1694352039738671	0.1964966174817301	-0.01099944529806208	-0.4119322479097534	-0.1355849021759686	-0.5539450461309668	2.098684833810948	0.05921718559831254	0.6967599523390196	-0.517552723781597	2.055342611019987	2.055342611019986	-0.008013820820355764	0.03504532014360801	0.4900497384877038	0.1505917027114806	-0.2355165222709736	0.06723572661995231	-0.02566103878408659	-0.27628763273627	0.09982331441984384	-0.00223161082102404	0.2255055908920784	-8.840105133077852	3.08541223456718	-1.543550846112332	0.6895889202066032	-635.1667986690932	-16.45608951098902	-11.01013880125725	0.7663793944727499	0.6263755373443849	0.00945990246606436	-2.501834648114115	0.5866868967140297	-0.723164744297102	2.048704028913321	-2.540351142320906	-2.54035114232091	0.08127413282957556	-0.1050417734060293	-0.9494049252078385	0.6092085448732151	-2.304976252385642e-07	1.206044155338075e-07	1.958566147234684e-06	2.530671124859084e-07	-3.071990921918399e-07	3.061867050305559e-07	-2.687960191862467e-07
0.5700000000000001	-0.3728795351003306	-0.04605088237202757	0.7198515299284756	1.352833149920625	-0.3014927164435288	0.06877650748986337	-0.3663954588107633	0.9896880352671956	0.9896880352672324	-0.173431230854982	0.1697796607447186	0.2013487562930065	-0.009464408910758315	-0.404117552555337	-0.1293470505050776	-0.5534989963899207	2.07291724143081	0.06481131517727454	0.6898106290317852	-0.497094748370776	2.02917102150385	2.029171021503848	-0.007804565635149861	0.03382642285667101	0.4803134848621033	0.1563638357230397	-0.2412158829707946	0.06665994648727878	-0.02547936292039575	-0.2794952033034243	0.09862497210460631	-0.002139663763880154	0.2301407062190001	-9.481275758933021	3.34053758879286	-1.793019842584128	1.064737820795219	-639.6974161482646	-16.48931242107343	-9.742232060925192	0.7944060528118644	0.6209652739697124	0.07991320462431316	-2.649025774825749	0.5384898868886348	-0.6870867451404435	2.045280316371408	-2.691354080235253	-2.691354080235441	-0.0128004547608663	-0.1336334059870024	-0.9953811944118478	0.5532084591999743	-2.178910559500385e-07	6.970905395026873e-08	1.867922637588415e-06	2.411597507000214e-07	-2.98805116003013e-07	3.129903850140713e-07	-2.61060638404171e-07
